<?xml version="1.0" encoding="utf-8"?>
<!--https://loading.io/animation/text/-->

<svg xmlns="http://www.w3.org/2000/svg" style="margin: auto; background: none; display: block; shape-rendering: auto;" width="800" height="251" viewbox=" 0 0 800 251" preserveAspectRatio="xMidYMid">
<style type="text/css">
  text {
    text-anchor: middle; font-size: 28px; opacity: 0;
  }
</style>
<g style="transform-origin:400px 125px;transform:scale(3)">
<g transform="translate(400,125)">
  <g transform="translate(0,0)"><g class="path" style="transform: scale(1); transform-origin: -106.765px -2.37555px; animation: 1s linear -0.621176s infinite normal forwards running beat-0fe5efef-0ed5-4c3e-b6c5-187149f01c99;"><path d="M5.74 0L0.42-18.96L3.05-19.80L7.48-2.83L11.65-17.56L14.98-17.56L19.12-2.83L23.52-19.71L25.98-18.96L20.69 0L17.39 0L13.24-14.73L9.04 0L5.74 0" fill="#34ffff" stroke="none" stroke-width="none" transform="translate(-119.96500253677368,7.52444588380701)" style="fill: rgb(52, 255, 255);"></path></g><g class="path" style="transform: scale(1); transform-origin: -85.695px 0.244446px; animation: 1s linear -0.582353s infinite normal forwards running beat-0fe5efef-0ed5-4c3e-b6c5-187149f01c99;"><path d="M26.82-7.20L26.82-7.20L26.82-7.20Q26.82-8.82 27.33-10.23L27.33-10.23L27.33-10.23Q27.83-11.65 28.74-12.68L28.74-12.68L28.74-12.68Q29.65-13.72 30.93-14.31L30.93-14.31L30.93-14.31Q32.20-14.90 33.71-14.90L33.71-14.90L33.71-14.90Q34.97-14.90 35.99-14.46L35.99-14.46L35.99-14.46Q37.02-14.03 37.77-13.38L37.77-13.38L37.77-14.56L40.07-14.56L40.07-3.53L40.07-3.53Q40.07-2.46 40.59-2.14L40.59-2.14L40.59-2.14Q41.10-1.82 41.72-1.82L41.72-1.82L41.19 0.14L41.19 0.14Q38.50 0.14 37.94-2.04L37.94-2.04L37.94-2.04Q37.60-1.60 37.17-1.16L37.17-1.16L37.17-1.16Q36.74-0.73 36.18-0.39L36.18-0.39L36.18-0.39Q35.62-0.06 34.92 0.14L34.92 0.14L34.92 0.14Q34.22 0.34 33.38 0.34L33.38 0.34L33.38 0.34Q32.00 0.34 30.81-0.20L30.81-0.20L30.81-0.20Q29.62-0.73 28.74-1.71L28.74-1.71L28.74-1.71Q27.86-2.69 27.34-4.07L27.34-4.07L27.34-4.07Q26.82-5.46 26.82-7.20zM33.94-1.90L33.94-1.90L33.94-1.90Q35-1.90 35.95-2.41L35.95-2.41L35.95-2.41Q36.90-2.91 37.55-3.72L37.55-3.72L37.55-11.54L37.55-11.54Q36.79-12.07 35.88-12.39L35.88-12.39L35.88-12.39Q34.97-12.71 33.96-12.71L33.96-12.71L33.96-12.71Q32.96-12.71 32.12-12.32L32.12-12.32L32.12-12.32Q31.28-11.93 30.67-11.21L30.67-11.21L30.67-11.21Q30.07-10.50 29.74-9.49L29.74-9.49L29.74-9.49Q29.40-8.48 29.40-7.28L29.40-7.28L29.40-7.28Q29.40-6.10 29.74-5.11L29.74-5.11L29.74-5.11Q30.07-4.12 30.69-3.40L30.69-3.40L30.69-3.40Q31.30-2.69 32.13-2.30L32.13-2.30L32.13-2.30Q32.96-1.90 33.94-1.90" fill="#34ffff" stroke="none" stroke-width="none" transform="translate(-119.96500253677368,7.52444588380701)" style="fill: rgb(178, 255, 255);"></path></g><g class="path" style="transform: scale(1); transform-origin: -73.625px 0.244446px; animation: 1s linear -0.543529s infinite normal forwards running beat-0fe5efef-0ed5-4c3e-b6c5-187149f01c99;"><path d="M47.60-14.56L47.60 0L45.08 0L45.08-14.56L47.60-14.56" fill="#34ffff" stroke="none" stroke-width="none" transform="translate(-119.96500253677368,7.52444588380701)" style="fill: rgb(229, 255, 255);"></path></g><g class="path" style="transform: scale(1); transform-origin: -73.625px -11.2906px; animation: 1s linear -0.504706s infinite normal forwards running beat-0fe5efef-0ed5-4c3e-b6c5-187149f01c99;"><path d="M46.34-17.05L46.34-17.05L46.34-17.05Q45.61-17.05 45.09-17.57L45.09-17.57L45.09-17.57Q44.58-18.09 44.58-18.82L44.58-18.82L44.58-18.82Q44.58-19.63 45.05-20.10L45.05-20.10L45.05-20.10Q45.53-20.58 46.34-20.58L46.34-20.58L46.34-20.58Q47.07-20.58 47.59-20.06L47.59-20.06L47.59-20.06Q48.10-19.54 48.10-18.82L48.10-18.82L48.10-18.82Q48.10-18.00 47.63-17.53L47.63-17.53L47.63-17.53Q47.15-17.05 46.34-17.05" fill="#34ffff" stroke="none" stroke-width="none" transform="translate(-119.96500253677368,7.52444588380701)" style="fill: rgb(208, 255, 255);"></path></g><g class="path" style="transform: scale(1); transform-origin: -64.565px -1.61555px; animation: 1s linear -0.465882s infinite normal forwards running beat-0fe5efef-0ed5-4c3e-b6c5-187149f01c99;"><path d="M52.70-14.03L53.23-18.62L55.16-18.62L55.16-14.03L59.19-14.03L59.19-11.84L55.16-11.84L55.16-4.82L55.16-4.82Q55.16-4.00 55.34-3.44L55.34-3.44L55.34-3.44Q55.52-2.88 55.83-2.55L55.83-2.55L55.83-2.55Q56.14-2.21 56.57-2.06L56.57-2.06L56.57-2.06Q57.01-1.90 57.48-1.90L57.48-1.90L57.48-1.90Q58.18-1.90 58.80-2.13L58.80-2.13L58.80-2.13Q59.42-2.35 59.98-2.66L59.98-2.66L60.68-0.64L60.68-0.64Q60.12-0.31 59.16 0.01L59.16 0.01L59.16 0.01Q58.21 0.34 57.18 0.34L57.18 0.34L57.18 0.34Q55.08 0.34 53.86-1.04L53.86-1.04L53.86-1.04Q52.64-2.41 52.64-5.01L52.64-5.01L52.64-11.84L50.12-11.84L50.12-14.03L52.70-14.03" fill="#34ffff" stroke="none" stroke-width="none" transform="translate(-119.96500253677368,7.52444588380701)" style="fill: rgb(52, 255, 255);"></path></g><g class="path" style="transform: scale(1); transform-origin: -55.505px 0.244446px; animation: 1s linear -0.427059s infinite normal forwards running beat-0fe5efef-0ed5-4c3e-b6c5-187149f01c99;"><path d="M65.72-14.56L65.72 0L63.20 0L63.20-14.56L65.72-14.56" fill="#34ffff" stroke="none" stroke-width="none" transform="translate(-119.96500253677368,7.52444588380701)" style="fill: rgb(52, 255, 255);"></path></g><g class="path" style="transform: scale(1); transform-origin: -55.51px -11.2906px; animation: 1s linear -0.388235s infinite normal forwards running beat-0fe5efef-0ed5-4c3e-b6c5-187149f01c99;"><path d="M64.46-17.05L64.46-17.05L64.46-17.05Q63.73-17.05 63.21-17.57L63.21-17.57L63.21-17.57Q62.69-18.09 62.69-18.82L62.69-18.82L62.69-18.82Q62.69-19.63 63.17-20.10L63.17-20.10L63.17-20.10Q63.64-20.58 64.46-20.58L64.46-20.58L64.46-20.58Q65.18-20.58 65.70-20.06L65.70-20.06L65.70-20.06Q66.22-19.54 66.22-18.82L66.22-18.82L66.22-18.82Q66.22-18.00 65.74-17.53L65.74-17.53L65.74-17.53Q65.27-17.05 64.46-17.05" fill="#34ffff" stroke="none" stroke-width="none" transform="translate(-119.96500253677368,7.52444588380701)" style="fill: rgb(178, 255, 255);"></path></g><g class="path" style="transform: scale(1); transform-origin: -43.65px 0.0744462px; animation: 1s linear -0.349412s infinite normal forwards running beat-0fe5efef-0ed5-4c3e-b6c5-187149f01c99;"><path d="M72.63-14.56L72.63-12.12L72.63-12.12Q73.42-13.30 74.63-14.10L74.63-14.10L74.63-14.10Q75.85-14.90 77.53-14.90L77.53-14.90L77.53-14.90Q80.00-14.90 81.21-13.41L81.21-13.41L81.21-13.41Q82.43-11.93 82.43-9.49L82.43-9.49L82.43 0L79.91 0L79.91-9.21L79.91-9.21Q79.91-10.81 79.18-11.75L79.18-11.75L79.18-11.75Q78.46-12.68 77.11-12.68L77.11-12.68L77.11-12.68Q76.47-12.68 75.85-12.45L75.85-12.45L75.85-12.45Q75.24-12.21 74.66-11.79L74.66-11.79L74.66-11.79Q74.09-11.37 73.60-10.81L73.60-10.81L73.60-10.81Q73.11-10.25 72.72-9.63L72.72-9.63L72.72 0L70.20 0L70.20-14.56L72.63-14.56" fill="#34ffff" stroke="none" stroke-width="none" transform="translate(-119.96500253677368,7.52444588380701)" style="fill: rgb(229, 255, 255);"></path></g><g class="path" style="transform: scale(1); transform-origin: -27.665px 3.32445px; animation: 1s linear -0.310588s infinite normal forwards running beat-0fe5efef-0ed5-4c3e-b6c5-187149f01c99;"><path d="M92.54-14.90L92.54-14.90L92.54-14.90Q93.80-14.90 94.79-14.48L94.79-14.48L94.79-14.48Q95.79-14.06 96.52-13.44L96.52-13.44L96.52-14.56L98.81-14.56L98.81-0.34L98.81-0.34Q98.81 1.48 98.34 2.77L98.34 2.77L98.34 2.77Q97.86 4.06 96.98 4.89L96.98 4.89L96.98 4.89Q96.10 5.71 94.86 6.10L94.86 6.10L94.86 6.10Q93.63 6.50 92.12 6.50L92.12 6.50L92.12 6.50Q90.80 6.50 89.60 6.19L89.60 6.19L89.60 6.19Q88.40 5.88 87.44 5.26L87.44 5.26L88.37 3.08L88.37 3.08Q89.04 3.61 89.94 3.96L89.94 3.96L89.94 3.96Q90.83 4.31 92.12 4.31L92.12 4.31L92.12 4.31Q94.11 4.31 95.24 3.28L95.24 3.28L95.24 3.28Q96.38 2.24 96.38-0.08L96.38-0.08L96.38-1.88L96.38-1.88Q95.82-1.20 94.77-0.60L94.77-0.60L94.77-0.60Q93.72 0 92.26 0L92.26 0L92.26 0Q91.03 0 89.85-0.49L89.85-0.49L89.85-0.49Q88.68-0.98 87.78-1.92L87.78-1.92L87.78-1.92Q86.88-2.86 86.34-4.21L86.34-4.21L86.34-4.21Q85.79-5.57 85.79-7.34L85.79-7.34L85.79-7.34Q85.79-8.96 86.32-10.35L86.32-10.35L86.32-10.35Q86.86-11.73 87.77-12.74L87.77-12.74L87.77-12.74Q88.68-13.75 89.91-14.32L89.91-14.32L89.91-14.32Q91.14-14.90 92.54-14.90zM92.82-2.24L92.82-2.24L92.82-2.24Q93.94-2.24 94.84-2.74L94.84-2.74L94.84-2.74Q95.73-3.25 96.29-3.92L96.29-3.92L96.29-11.54L96.29-11.54Q95.65-11.98 94.81-12.35L94.81-12.35L94.81-12.35Q93.97-12.71 92.79-12.71L92.79-12.71L92.79-12.71Q91.92-12.71 91.13-12.36L91.13-12.36L91.13-12.36Q90.33-12.01 89.71-11.34L89.71-11.34L89.71-11.34Q89.10-10.67 88.73-9.70L88.73-9.70L88.73-9.70Q88.37-8.74 88.37-7.48L88.37-7.48L88.37-7.48Q88.37-6.27 88.73-5.31L88.73-5.31L88.73-5.31Q89.10-4.34 89.71-3.65L89.71-3.65L89.71-3.65Q90.33-2.97 91.13-2.60L91.13-2.60L91.13-2.60Q91.92-2.24 92.82-2.24" fill="#34ffff" stroke="none" stroke-width="none" transform="translate(-119.96500253677368,7.52444588380701)" style="fill: rgb(208, 255, 255);"></path></g><g class="path" style="transform: scale(1); transform-origin: -3.8147e-06px -2.27555px; animation: 1s linear -0.271765s infinite normal forwards running beat-0fe5efef-0ed5-4c3e-b6c5-187149f01c99;"><path d="M110.71-9.83L110.71-9.83L110.71-9.83Q110.71-11.98 111.34-13.83L111.34-13.83L111.34-13.83Q111.97-15.68 113.16-17.04L113.16-17.04L113.16-17.04Q114.35-18.40 116.06-19.17L116.06-19.17L116.06-19.17Q117.77-19.94 119.95-19.94L119.95-19.94L119.95-19.94Q122.11-19.94 123.83-19.14L123.83-19.14L123.83-19.14Q125.55-18.34 126.74-16.97L126.74-16.97L126.74-16.97Q127.93-15.60 128.58-13.76L128.58-13.76L128.58-13.76Q129.22-11.93 129.22-9.83L129.22-9.83L129.22-9.83Q129.22-7.73 128.59-5.88L128.59-5.88L128.59-5.88Q127.96-4.03 126.76-2.65L126.76-2.65L126.76-2.65Q125.55-1.26 123.84-0.46L123.84-0.46L123.84-0.46Q122.14 0.34 119.95 0.34L119.95 0.34L119.95 0.34Q117.77 0.34 116.06-0.46L116.06-0.46L116.06-0.46Q114.35-1.26 113.16-2.65L113.16-2.65L113.16-2.65Q111.97-4.03 111.34-5.88L111.34-5.88L111.34-5.88Q110.71-7.73 110.71-9.83zM113.43-9.83L113.43-9.83L113.43-9.83Q113.43-8.32 113.86-6.89L113.86-6.89L113.86-6.89Q114.30-5.46 115.14-4.37L115.14-4.37L115.14-4.37Q115.98-3.28 117.19-2.62L117.19-2.62L117.19-2.62Q118.41-1.96 119.95-1.96L119.95-1.96L119.95-1.96Q121.58-1.96 122.79-2.56L122.79-2.56L122.79-2.56Q124.01-3.16 124.84-4.21L124.84-4.21L124.84-4.21Q125.66-5.26 126.08-6.71L126.08-6.71L126.08-6.71Q126.50-8.15 126.50-9.83L126.50-9.83L126.50-9.83Q126.50-11.34 126.06-12.74L126.06-12.74L126.06-12.74Q125.61-14.14 124.77-15.23L124.77-15.23L124.77-15.23Q123.93-16.32 122.71-16.98L122.71-16.98L122.71-16.98Q121.49-17.64 119.95-17.64L119.95-17.64L119.95-17.64Q118.41-17.64 117.19-17.04L117.19-17.04L117.19-17.04Q115.98-16.44 115.14-15.39L115.14-15.39L115.14-15.39Q114.30-14.34 113.86-12.91L113.86-12.91L113.86-12.91Q113.43-11.48 113.43-9.83" fill="#34ffff" stroke="none" stroke-width="none" transform="translate(-119.96500253677368,7.52444588380701)" style="fill: rgb(52, 255, 255);"></path></g><g class="path" style="transform: scale(1); transform-origin: 19.165px 3.15445px; animation: 1s linear -0.232941s infinite normal forwards running beat-0fe5efef-0ed5-4c3e-b6c5-187149f01c99;"><path d="M131.74-12.60L132.27-14.56L132.27-14.56Q134.85-14.56 135.49-12.52L135.49-12.52L135.49-12.52Q135.69-12.82 136.09-13.24L136.09-13.24L136.09-13.24Q136.50-13.66 137.09-14.03L137.09-14.03L137.09-14.03Q137.68-14.39 138.43-14.64L138.43-14.64L138.43-14.64Q139.19-14.90 140.11-14.90L140.11-14.90L140.11-14.90Q141.37-14.90 142.53-14.39L142.53-14.39L142.53-14.39Q143.70-13.89 144.58-12.94L144.58-12.94L144.58-12.94Q145.46-11.98 145.99-10.58L145.99-10.58L145.99-10.58Q146.52-9.18 146.52-7.42L146.52-7.42L146.52-7.42Q146.52-5.68 146.01-4.26L146.01-4.26L146.01-4.26Q145.49-2.83 144.61-1.81L144.61-1.81L144.61-1.81Q143.72-0.78 142.58-0.22L142.58-0.22L142.58-0.22Q141.43 0.34 140.17 0.34L140.17 0.34L140.17 0.34Q138.85 0.34 137.75-0.18L137.75-0.18L137.75-0.18Q136.64-0.70 135.91-1.37L135.91-1.37L135.91 6.16L133.39 6.16L133.39-10.84L133.39-10.84Q133.39-11.79 132.93-12.19L132.93-12.19L132.93-12.19Q132.47-12.60 131.74-12.60L131.74-12.60zM143.95-7.34L143.95-7.34L143.95-7.34Q143.95-8.60 143.60-9.59L143.60-9.59L143.60-9.59Q143.25-10.58 142.65-11.28L142.65-11.28L142.65-11.28Q142.04-11.98 141.25-12.35L141.25-12.35L141.25-12.35Q140.45-12.71 139.55-12.71L139.55-12.71L139.55-12.71Q138.35-12.71 137.38-12.11L137.38-12.11L137.38-12.11Q136.42-11.51 135.91-10.81L135.91-10.81L135.91-3.64L135.91-3.64Q136.64-2.88 137.58-2.39L137.58-2.39L137.58-2.39Q138.52-1.90 139.66-1.90L139.66-1.90L139.66-1.90Q140.62-1.90 141.40-2.30L141.40-2.30L141.40-2.30Q142.18-2.69 142.76-3.40L142.76-3.40L142.76-3.40Q143.33-4.12 143.64-5.11L143.64-5.11L143.64-5.11Q143.95-6.10 143.95-7.34" fill="#34ffff" stroke="none" stroke-width="none" transform="translate(-119.96500253677368,7.52444588380701)" style="fill: rgb(52, 255, 255);"></path></g><g class="path" style="transform: scale(1); transform-origin: 35.77px 3.15445px; animation: 1s linear -0.194118s infinite normal forwards running beat-0fe5efef-0ed5-4c3e-b6c5-187149f01c99;"><path d="M148.34-12.60L148.88-14.56L148.88-14.56Q151.45-14.56 152.10-12.52L152.10-12.52L152.10-12.52Q152.29-12.82 152.70-13.24L152.70-13.24L152.70-13.24Q153.10-13.66 153.69-14.03L153.69-14.03L153.69-14.03Q154.28-14.39 155.04-14.64L155.04-14.64L155.04-14.64Q155.79-14.90 156.72-14.90L156.72-14.90L156.72-14.90Q157.98-14.90 159.14-14.39L159.14-14.39L159.14-14.39Q160.30-13.89 161.18-12.94L161.18-12.94L161.18-12.94Q162.06-11.98 162.60-10.58L162.60-10.58L162.60-10.58Q163.13-9.18 163.13-7.42L163.13-7.42L163.13-7.42Q163.13-5.68 162.61-4.26L162.61-4.26L162.61-4.26Q162.09-2.83 161.21-1.81L161.21-1.81L161.21-1.81Q160.33-0.78 159.18-0.22L159.18-0.22L159.18-0.22Q158.03 0.34 156.77 0.34L156.77 0.34L156.77 0.34Q155.46 0.34 154.35-0.18L154.35-0.18L154.35-0.18Q153.24-0.70 152.52-1.37L152.52-1.37L152.52 6.16L150.00 6.16L150.00-10.84L150.00-10.84Q150.00-11.79 149.53-12.19L149.53-12.19L149.53-12.19Q149.07-12.60 148.34-12.60L148.34-12.60zM160.55-7.34L160.55-7.34L160.55-7.34Q160.55-8.60 160.20-9.59L160.20-9.59L160.20-9.59Q159.85-10.58 159.25-11.28L159.25-11.28L159.25-11.28Q158.65-11.98 157.85-12.35L157.85-12.35L157.85-12.35Q157.05-12.71 156.16-12.71L156.16-12.71L156.16-12.71Q154.95-12.71 153.99-12.11L153.99-12.11L153.99-12.11Q153.02-11.51 152.52-10.81L152.52-10.81L152.52-3.64L152.52-3.64Q153.24-2.88 154.18-2.39L154.18-2.39L154.18-2.39Q155.12-1.90 156.27-1.90L156.27-1.90L156.27-1.90Q157.22-1.90 158.00-2.30L158.00-2.30L158.00-2.30Q158.79-2.69 159.36-3.40L159.36-3.40L159.36-3.40Q159.94-4.12 160.24-5.11L160.24-5.11L160.24-5.11Q160.55-6.10 160.55-7.34" fill="#34ffff" stroke="none" stroke-width="none" transform="translate(-119.96500253677368,7.52444588380701)" style="fill: rgb(178, 255, 255);"></path></g><g class="path" style="transform: scale(1); transform-origin: 52.795px 0.244446px; animation: 1s linear -0.155294s infinite normal forwards running beat-0fe5efef-0ed5-4c3e-b6c5-187149f01c99;"><path d="M177.44-7.28L177.44-7.28L177.44-7.28Q177.44-8.37 177.09-9.35L177.09-9.35L177.09-9.35Q176.74-10.33 176.11-11.06L176.11-11.06L176.11-11.06Q175.48-11.79 174.62-12.22L174.62-12.22L174.62-12.22Q173.77-12.66 172.76-12.66L172.76-12.66L172.76-12.66Q170.55-12.66 169.32-11.20L169.32-11.20L169.32-11.20Q168.08-9.74 168.08-7.34L168.08-7.34L168.08-7.34Q168.08-6.24 168.43-5.25L168.43-5.25L168.43-5.25Q168.78-4.26 169.41-3.51L169.41-3.51L169.41-3.51Q170.04-2.77 170.90-2.34L170.90-2.34L170.90-2.34Q171.75-1.90 172.76-1.90L172.76-1.90L172.76-1.90Q173.85-1.90 174.72-2.30L174.72-2.30L174.72-2.30Q175.59-2.69 176.19-3.40L176.19-3.40L176.19-3.40Q176.79-4.12 177.11-5.10L177.11-5.10L177.11-5.10Q177.44-6.08 177.44-7.28zM165.51-7.28L165.51-7.28L165.51-7.28Q165.51-9.04 166.07-10.46L166.07-10.46L166.07-10.46Q166.63-11.87 167.59-12.85L167.59-12.85L167.59-12.85Q168.56-13.83 169.89-14.36L169.89-14.36L169.89-14.36Q171.22-14.90 172.76-14.90L172.76-14.90L172.76-14.90Q174.27-14.90 175.60-14.36L175.60-14.36L175.60-14.36Q176.93-13.83 177.91-12.85L177.91-12.85L177.91-12.85Q178.89-11.87 179.45-10.47L179.45-10.47L179.45-10.47Q180.01-9.07 180.01-7.34L180.01-7.34L180.01-7.34Q180.01-5.60 179.47-4.19L179.47-4.19L179.47-4.19Q178.92-2.77 177.94-1.76L177.94-1.76L177.94-1.76Q176.96-0.76 175.63-0.21L175.63-0.21L175.63-0.21Q174.30 0.34 172.76 0.34L172.76 0.34L172.76 0.34Q171.19 0.34 169.86-0.22L169.86-0.22L169.86-0.22Q168.53-0.78 167.57-1.79L167.57-1.79L167.57-1.79Q166.60-2.80 166.05-4.20L166.05-4.20L166.05-4.20Q165.51-5.60 165.51-7.28" fill="#34ffff" stroke="none" stroke-width="none" transform="translate(-119.96500253677368,7.52444588380701)" style="fill: rgb(229, 255, 255);"></path></g><g class="path" style="transform: scale(1); transform-origin: 69.525px 0.0744462px; animation: 1s linear -0.116471s infinite normal forwards running beat-0fe5efef-0ed5-4c3e-b6c5-187149f01c99;"><path d="M185.81-14.56L185.81-12.12L185.81-12.12Q186.59-13.30 187.81-14.10L187.81-14.10L187.81-14.10Q189.03-14.90 190.71-14.90L190.71-14.90L190.71-14.90Q193.17-14.90 194.39-13.41L194.39-13.41L194.39-13.41Q195.61-11.93 195.61-9.49L195.61-9.49L195.61 0L193.09 0L193.09-9.21L193.09-9.21Q193.09-10.81 192.36-11.75L192.36-11.75L192.36-11.75Q191.63-12.68 190.29-12.68L190.29-12.68L190.29-12.68Q189.64-12.68 189.03-12.45L189.03-12.45L189.03-12.45Q188.41-12.21 187.84-11.79L187.84-11.79L187.84-11.79Q187.26-11.37 186.77-10.81L186.77-10.81L186.77-10.81Q186.28-10.25 185.89-9.63L185.89-9.63L185.89 0L183.37 0L183.37-14.56L185.81-14.56" fill="#34ffff" stroke="none" stroke-width="none" transform="translate(-119.96500253677368,7.52444588380701)" style="fill: rgb(208, 255, 255);"></path></g><g class="path" style="transform: scale(1); transform-origin: 85.43px 0.244446px; animation: 1s linear -0.0776471s infinite normal forwards running beat-0fe5efef-0ed5-4c3e-b6c5-187149f01c99;"><path d="M211.74-6.24L201.54-6.24L201.54-6.24Q201.80-4.20 202.97-3.05L202.97-3.05L202.97-3.05Q204.15-1.90 206.08-1.90L206.08-1.90L206.08-1.90Q207.34-1.90 208.35-2.17L208.35-2.17L208.35-2.17Q209.36-2.44 210.28-2.86L210.28-2.86L210.87-0.70L210.87-0.70Q209.86-0.22 208.60 0.06L208.60 0.06L208.60 0.06Q207.34 0.34 205.77 0.34L205.77 0.34L205.77 0.34Q204.20 0.34 202.94-0.18L202.94-0.18L202.94-0.18Q201.68-0.70 200.80-1.67L200.80-1.67L200.80-1.67Q199.92-2.63 199.44-4.05L199.44-4.05L199.44-4.05Q198.97-5.46 198.97-7.28L198.97-7.28L198.97-7.28Q198.97-8.90 199.44-10.30L199.44-10.30L199.44-10.30Q199.92-11.70 200.79-12.73L200.79-12.73L200.79-12.73Q201.66-13.75 202.86-14.32L202.86-14.32L202.86-14.32Q204.06-14.90 205.55-14.90L205.55-14.90L205.55-14.90Q207.12-14.90 208.29-14.36L208.29-14.36L208.29-14.36Q209.47-13.83 210.25-12.91L210.25-12.91L210.25-12.91Q211.04-11.98 211.43-10.75L211.43-10.75L211.43-10.75Q211.82-9.52 211.82-8.15L211.82-8.15L211.82-8.15Q211.82-7.17 211.74-6.24L211.74-6.24zM205.49-12.71L205.49-12.71L205.49-12.71Q203.84-12.71 202.79-11.59L202.79-11.59L202.79-11.59Q201.74-10.47 201.52-8.29L201.52-8.29L209.50-8.29L209.50-8.29Q209.50-10.42 208.43-11.56L208.43-11.56L208.43-11.56Q207.37-12.71 205.49-12.71" fill="#34ffff" stroke="none" stroke-width="none" transform="translate(-119.96500253677368,7.52444588380701)" style="fill: rgb(52, 255, 255);"></path></g><g class="path" style="transform: scale(1); transform-origin: 101.335px 0.0744462px; animation: 1s linear -0.0388235s infinite normal forwards running beat-0fe5efef-0ed5-4c3e-b6c5-187149f01c99;"><path d="M217.62-14.56L217.62-12.12L217.62-12.12Q218.40-13.30 219.62-14.10L219.62-14.10L219.62-14.10Q220.84-14.90 222.52-14.90L222.52-14.90L222.52-14.90Q224.98-14.90 226.20-13.41L226.20-13.41L226.20-13.41Q227.42-11.93 227.42-9.49L227.42-9.49L227.42 0L224.90 0L224.90-9.21L224.90-9.21Q224.90-10.81 224.17-11.75L224.17-11.75L224.17-11.75Q223.44-12.68 222.10-12.68L222.10-12.68L222.10-12.68Q221.45-12.68 220.84-12.45L220.84-12.45L220.84-12.45Q220.22-12.21 219.65-11.79L219.65-11.79L219.65-11.79Q219.07-11.37 218.58-10.81L218.58-10.81L218.58-10.81Q218.09-10.25 217.70-9.63L217.70-9.63L217.70 0L215.18 0L215.18-14.56L217.62-14.56" fill="#34ffff" stroke="none" stroke-width="none" transform="translate(-119.96500253677368,7.52444588380701)" style="fill: rgb(52, 255, 255);"></path></g><g class="path" style="transform: scale(1); transform-origin: 115.11px -1.61555px; animation: 1s linear 0s infinite normal forwards running beat-0fe5efef-0ed5-4c3e-b6c5-187149f01c99;"><path d="M232.37-14.03L232.90-18.62L234.84-18.62L234.84-14.03L238.87-14.03L238.87-11.84L234.84-11.84L234.84-4.82L234.84-4.82Q234.84-4.00 235.02-3.44L235.02-3.44L235.02-3.44Q235.20-2.88 235.51-2.55L235.51-2.55L235.51-2.55Q235.82-2.21 236.25-2.06L236.25-2.06L236.25-2.06Q236.68-1.90 237.16-1.90L237.16-1.90L237.16-1.90Q237.86-1.90 238.48-2.13L238.48-2.13L238.48-2.13Q239.09-2.35 239.65-2.66L239.65-2.66L240.35-0.64L240.35-0.64Q239.79-0.31 238.84 0.01L238.84 0.01L238.84 0.01Q237.89 0.34 236.85 0.34L236.85 0.34L236.85 0.34Q234.75 0.34 233.53-1.04L233.53-1.04L233.53-1.04Q232.32-2.41 232.32-5.01L232.32-5.01L232.32-11.84L229.80-11.84L229.80-14.03L232.37-14.03" fill="#34ffff" stroke="none" stroke-width="none" transform="translate(-119.96500253677368,7.52444588380701)" style="fill: rgb(178, 255, 255);"></path></g></g>
</g>
</g>
<style id="beat-0fe5efef-0ed5-4c3e-b6c5-187149f01c99" data-anikit="">@keyframes beat-0fe5efef-0ed5-4c3e-b6c5-187149f01c99
{
  0% {
    animation-timing-function: cubic-bezier(0.1028,0.2484,0.1372,0.849);
    transform: scale(1);
  }
  34% {
    animation-timing-function: cubic-bezier(0.7116,0.2095,0.8159,0.6876);
    transform: scale(1.2);
  }
  68% {
    animation-timing-function: cubic-bezier(0.1475,0.2888,0.294,0.883);
    transform: scale(1.0268);
  }
  84% {
    animation-timing-function: cubic-bezier(0.8176,0.2193,0.867,0.6889);
    transform: scale(1.0932);
  }
  100% {
    transform: scale(1);
  }
}</style></svg>